<svg width="20" height="14" viewBox="0 0 20 14" fill="none" xmlns="http://www.w3.org/2000/svg">
<path d="M16.4431 7.14883C18.3975 5.65005 19.6645 3.51058 19.9847 1.1683C20.0022 1.03219 19.9908 0.89419 19.9512 0.762187C19.9116 0.630184 19.8445 0.506761 19.7537 0.398965C19.663 0.291168 19.5504 0.20111 19.4224 0.133932C19.2944 0.066753 19.1535 0.0237696 19.0077 0.00743605C18.8619 -0.00889755 18.7141 0.00173842 18.5727 0.0387365C18.4313 0.0757345 18.2991 0.13837 18.1836 0.223067C18.0682 0.307764 17.9717 0.412864 17.8998 0.532366C17.8278 0.651867 17.7818 0.783431 17.7643 0.919544C17.4988 2.66735 16.5665 4.26697 15.1387 5.4243C13.7109 6.58163 11.8836 7.21887 9.99268 7.21887C8.1018 7.21887 6.27447 6.58163 4.84666 5.4243C3.41884 4.26697 2.48652 2.66735 2.22109 0.919544C2.2036 0.783431 2.15756 0.651867 2.0856 0.532366C2.01364 0.412864 1.91717 0.307764 1.80171 0.223067C1.68624 0.13837 1.55404 0.0757345 1.41265 0.0387365C1.27125 0.00173842 1.12344 -0.00889755 0.97764 0.00743605C0.831843 0.0237696 0.69092 0.066753 0.562916 0.133932C0.434913 0.20111 0.322336 0.291168 0.231613 0.398965C0.14089 0.506761 0.0737981 0.630184 0.0341679 0.762187C-0.00546232 0.89419 -0.0168547 1.03219 0.000640922 1.1683C0.317984 3.50904 1.58085 5.64828 3.53116 7.14883L0.97764 9.55347C0.795756 9.75176 0.700713 10.0068 0.711506 10.2677C0.722299 10.5285 0.838131 10.776 1.03586 10.9606C1.23358 11.1452 1.49864 11.2533 1.77805 11.2634C2.05747 11.2735 2.33067 11.1847 2.54306 11.0149L5.44075 8.32006C6.51691 8.82929 7.68296 9.15236 8.88245 9.27362V12.9635C8.88245 13.2384 8.99942 13.502 9.20763 13.6964C9.41584 13.8908 9.69823 14 9.99268 14C10.2871 14 10.5695 13.8908 10.7777 13.6964C10.9859 13.502 11.1029 13.2384 11.1029 12.9635V9.27362C12.3024 9.15236 13.4684 8.82929 14.5446 8.32006L17.4423 11.0149C17.6547 11.1847 17.9279 11.2735 18.2073 11.2634C18.4867 11.2533 18.7518 11.1452 18.9495 10.9606C19.1472 10.776 19.2631 10.5285 19.2738 10.2677C19.2846 10.0068 19.1896 9.75176 19.0077 9.55347L16.4431 7.14883Z" fill="black"/>
</svg>
