<svg width="20" height="14" viewBox="0 0 20 14" fill="none" xmlns="http://www.w3.org/2000/svg">
<path d="M19.8622 6.50012C19.2224 5.39012 15.7038 -0.179884 9.7262 0.000115688C4.1984 0.140116 0.99967 5.00012 0.130015 6.50012C0.0422817 6.65214 -0.00390625 6.82458 -0.00390625 7.00012C-0.00390625 7.17565 0.0422817 7.3481 0.130015 7.50012C0.759765 8.59012 4.12843 14.0001 10.0161 14.0001H10.266C15.7938 13.8601 19.0025 9.00012 19.8622 7.50012C19.9499 7.3481 19.9961 7.17565 19.9961 7.00012C19.9961 6.82458 19.9499 6.65214 19.8622 6.50012ZM10.216 12.0001C5.90772 12.1001 3.09883 8.41012 2.21918 7.00012C3.21879 5.39012 5.82775 2.10012 9.82616 2.00012C14.1145 1.89012 16.9333 5.59012 17.823 7.00012C16.7934 8.61012 14.2144 11.9001 10.216 12.0001Z" fill="black"/>
<path d="M9.99617 3.5C9.30421 3.5 8.62779 3.70527 8.05245 4.08986C7.4771 4.47444 7.02868 5.02107 6.76388 5.66061C6.49907 6.30015 6.42979 7.00388 6.56478 7.68282C6.69978 8.36175 7.03299 8.98539 7.52228 9.47487C8.01157 9.96436 8.63496 10.2977 9.31362 10.4327C9.99229 10.5678 10.6957 10.4985 11.335 10.2336C11.9743 9.96867 12.5207 9.52007 12.9052 8.9445C13.2896 8.36892 13.4948 7.69223 13.4948 7C13.4948 6.07174 13.1262 5.1815 12.4701 4.52513C11.8139 3.86875 10.9241 3.5 9.99617 3.5ZM9.99617 8.5C9.69962 8.5 9.40972 8.41203 9.16315 8.2472C8.91657 8.08238 8.72439 7.84811 8.6109 7.57403C8.49741 7.29994 8.46772 6.99834 8.52558 6.70736C8.58343 6.41639 8.72624 6.14912 8.93593 5.93934C9.14563 5.72956 9.41279 5.5867 9.70365 5.52882C9.99451 5.47094 10.296 5.50065 10.57 5.61418C10.8439 5.72771 11.0781 5.91997 11.2429 6.16665C11.4076 6.41332 11.4956 6.70333 11.4956 7C11.4956 7.39782 11.3376 7.77936 11.0564 8.06066C10.7752 8.34196 10.3938 8.5 9.99617 8.5Z" fill="black"/>
</svg>
